<?xml version="1.0" encoding="utf-8"?>
<!-- Generator: Adobe Illustrator 15.1.0, SVG Export Plug-In . SVG Version: 6.00 Build 0)  -->
<!DOCTYPE svg PUBLIC "-//W3C//DTD SVG 1.1//EN" "http://www.w3.org/Graphics/SVG/1.1/DTD/svg11.dtd">
<svg version="1.1" id="Layer_1" xmlns="http://www.w3.org/2000/svg" xmlns:xlink="http://www.w3.org/1999/xlink" x="0px" y="0px"
	 width="287.667px" height="71.667px" viewBox="0 0 287.667 71.667" enable-background="new 0 0 287.667 71.667"
	 xml:space="preserve">
<g>
	<g>
		<path fill="#BC2D1D" d="M29.81,68.165c-0.087,0.279-0.339,0.474-0.631,0.488c-0.292,0.014-0.562-0.156-0.675-0.425
			c-0.678-1.611-1-4.117-0.549-5.944c0.816-3.31,5.119-11.226,22.129-16.991c10.948-3.709,17.226-8.979,16.51-13.758
			c-0.9-6.02-11.627-12.752-24.635-12.752c-15.121,0-28.977,8.271-30.808,15.387c-1.291,5.014,3.715,8.976,8.142,11.416
			l-0.015,0.027c-0.972,1.762-2.705,2.974-4.693,3.283c-1.989,0.308-4.008-0.323-5.468-1.708c-6.016-5.705-5.853-11.471-4.99-14.826
			C7.034,21.069,24.358,11.53,41.959,11.53c15.978,0,30.247,8.493,31.809,18.931c0.771,5.159-1.003,14.75-21.561,21.042
			C38.883,55.58,31.625,62.342,29.81,68.165z"/>
	</g>
</g>
<g>
	<g>
		<path fill="#BC2D1D" d="M22.806,50.142L37.529,39h-4.737c-1.285,0-2.103-1.131-2.412-2.146c-0.265-0.873-0.058-2.502,1.009-3.214
			l14.88-9.959c0.727-0.488,1.617-0.659,2.476-0.49c0.859,0.169,1.614,0.677,2.102,1.404L34.121,35.804l6.489-0.004
			c1.583-0.072,2.17,0.756,2.394,1.473c0.161,0.515,0.381,1.79-1.035,2.767C41.969,40.039,35.702,44.105,22.806,50.142z"/>
	</g>
</g>
<g>
	<path fill="#BC2D1D" d="M102.107,16.936c8.633,0,11.826,3.548,11.826,10.998v20.222c0,0-0.827,0.473-2.897,0.473
		c-1.833,0-3.015-0.473-3.015-0.473l-1.124-3.193c-1.36,2.779-4.375,4.258-8.633,4.258c-5.617,0-9.165-3.311-9.165-10.229
		c0-6.682,4.199-9.402,11.53-9.402c2.069,0,4.139,0.119,5.854,0.296v-1.301c0-2.956-1.065-5.38-5.321-5.38
		c-3.903,0-7.569,1.419-7.569,1.419s-0.946-0.591-1.656-2.188c-0.709-1.596-0.473-3.134-0.473-3.134S95.84,16.936,102.107,16.936z
		 M101.576,34.556c-3.015,0-4.79,1.242-4.79,4.435c0,3.37,1.597,4.553,4.258,4.553c4.139,0,5.439-3.844,5.439-6.977v-1.774
		C105.006,34.675,103.29,34.556,101.576,34.556z"/>
	<path fill="#BC2D1D" d="M131.673,16.936c6.326,0,8.691,1.715,8.691,1.715c0,1.892-0.591,4.021-1.893,5.262
		c0,0-2.779-0.946-6.031-0.946c-3.429,0-5.085,1.183-5.085,3.311c0,2.542,3.784,2.957,7.509,4.258
		c3.548,1.241,7.037,3.311,7.037,8.869c0,6.268-3.844,9.816-11.589,9.816c-6.445,0-10.229-2.248-10.229-2.248
		c0-2.188,0.65-4.198,2.011-5.499c0,0,3.843,1.419,7.864,1.419c3.193,0,4.613-1.123,4.613-3.312c0-2.542-2.897-3.193-6.09-4.139
		c-3.903-1.183-8.22-2.838-8.22-8.928C120.26,20.779,123.926,16.936,131.673,16.936z"/>
	<path fill="#BC2D1D" d="M164.548,18c0,0,1.538-0.473,3.726-0.473c2.01,0,3.666,0.473,3.666,0.473l-8.633,13.895l9.993,16.26
		c0,0-1.714,0.533-4.139,0.533c-2.483,0-4.021-0.533-4.021-0.533l-8.041-13.008h-1.774v13.008c0,0-1.479,0.473-3.666,0.473
		c-2.306,0-3.784-0.473-3.784-0.473V4.637c0,0,1.537-0.355,3.784-0.355c1.951,0,3.666,0.355,3.666,0.355v25.011h1.892L164.548,18z"
		/>
	<path fill="#BC2D1D" d="M201.681,48.333c0,0-0.769,0.295-2.129,0.295c-1.477,0-2.128-0.295-2.128-0.295v-21.7
		c0-4.08-2.129-6.149-6.387-6.149c-3.251,0-6.503,2.01-8.277,5.38v22.469c0,0-0.709,0.295-2.128,0.295
		c-1.478,0-2.129-0.295-2.129-0.295V17.822c0,0,0.651-0.295,2.129-0.295c1.419,0,2.128,0.295,2.128,0.295v3.725
		c2.306-2.897,5.676-4.612,9.815-4.612c5.794,0,9.106,3.548,9.106,8.869V48.333z"/>
	<path fill="#BC2D1D" d="M222.258,16.936c7.923,0,12.653,4.435,12.653,16.142s-4.73,16.143-12.653,16.143
		c-7.923,0-12.654-4.435-12.654-16.143S214.335,16.936,222.258,16.936z M222.258,20.306c-5.086,0-8.278,2.898-8.278,12.772
		c0,9.875,3.192,12.772,8.278,12.772c5.084,0,8.278-2.898,8.278-12.772C230.536,23.204,227.343,20.306,222.258,20.306z"/>
	<path fill="#BC2D1D" d="M263.707,30.181c-1.36-4.553-1.715-6.8-1.774-7.864h-0.178c-0.118,1.064-0.472,3.37-1.951,7.864
		l-5.735,18.152c-0.532,0.118-1.3,0.295-2.248,0.295c-1.004,0-1.773-0.177-2.364-0.295l-9.461-30.511c0,0,0.709-0.295,2.129-0.295
		c1.478,0,1.95,0.295,1.95,0.295l6.505,20.696c0.828,2.779,1.063,4.612,1.182,5.38h0.177c0.118-0.769,0.414-2.661,1.301-5.38
		l6.504-20.696c0,0,0.947-0.295,2.247-0.295c1.419,0,2.129,0.295,2.129,0.295l6.386,20.577c0.886,2.838,1.064,4.73,1.183,5.499
		h0.177c0.118-0.769,0.475-2.543,1.36-5.44l6.445-20.636c0,0,0.71-0.295,1.951-0.295c1.359,0,1.892,0.295,1.892,0.295l-9.461,30.511
		c-0.649,0.118-1.359,0.295-2.306,0.295c-0.945,0-1.655-0.177-2.306-0.295L263.707,30.181z"/>
</g>
</svg>
